<?xml version="1.0" encoding="UTF-8"?>
<svg viewBox="0 0 397.5181 388.25037" xmlns="http://www.w3.org/2000/svg" xmlns:xlink="http://www.w3.org/1999/xlink">
 <defs>
  <linearGradient id="b">
   <stop stop-color="#492200" offset="0"/>
   <stop stop-color="#1a0400" offset="1"/>
  </linearGradient>
  <linearGradient id="c">
   <stop stop-color="#ecf549" offset="0"/>
   <stop stop-color="#ba9312" offset="1"/>
  </linearGradient>
  <linearGradient id="a" x1="622.76" x2="656.09" gradientUnits="userSpaceOnUse">
   <stop stop-color="#f0e70d" offset="0"/>
   <stop stop-color="#c6b026" offset="1"/>
  </linearGradient>
  <linearGradient id="as" x1="423.24" x2="372.94" y1="359.8" y2="379.8" gradientUnits="userSpaceOnUse" xlink:href="#b"/>
  <linearGradient id="ar" x1="421.74" x2="247.49" y1="549.31" y2="522.03" gradientUnits="userSpaceOnUse" xlink:href="#b"/>
  <linearGradient id="aq" x1="383.36" x2="541.94" y1="545.77" y2="512.44" gradientUnits="userSpaceOnUse" xlink:href="#b"/>
  <linearGradient id="ap" x1="346.48" x2="543.45" gradientUnits="userSpaceOnUse" xlink:href="#b"/>
  <linearGradient id="ao" x1="253.05" x2="357.08" gradientUnits="userSpaceOnUse" xlink:href="#b"/>
  <linearGradient id="an" x1="389.5" x2="432.5" gradientUnits="userSpaceOnUse" xlink:href="#b"/>
  <linearGradient id="am" x1="306.5" x2="75" y1="309.11" y2="324.11" gradientUnits="userSpaceOnUse" xlink:href="#b"/>
  <linearGradient id="al" x1="191" x2="253" gradientUnits="userSpaceOnUse" xlink:href="#b"/>
  <linearGradient id="ak" x1="130.82" x2="266.17" y1="215.67" y2="532.81" gradientUnits="userSpaceOnUse" xlink:href="#c"/>
  <linearGradient id="aj" x1="148.24" x2="71.718" y1="312.79" y2="363.58" gradientUnits="userSpaceOnUse" xlink:href="#b"/>
  <linearGradient id="ai" x1="143.88" x2="81.697" y1="321.56" y2="342.86" gradientUnits="userSpaceOnUse" xlink:href="#b"/>
  <linearGradient id="ah" x1="148.44" x2="74.964" y1="328" y2="342.16" gradientUnits="userSpaceOnUse" xlink:href="#b"/>
  <linearGradient id="ag" x1="374.5" x2="239.5" y1="676.11" y2="607.86" gradientUnits="userSpaceOnUse" xlink:href="#b"/>
  <linearGradient id="af" x1="363" x2="213" y1="654.86" y2="580.36" gradientUnits="userSpaceOnUse" xlink:href="#b"/>
  <linearGradient id="ae" x1="344.5" x2="242.5" y1="628.61" y2="577.36" gradientUnits="userSpaceOnUse" xlink:href="#b"/>
  <linearGradient id="ad" x1="325" x2="241.5" y1="598.86" y2="567.36" gradientUnits="userSpaceOnUse" xlink:href="#b"/>
  <linearGradient id="ac" x1="337" x2="240.5" y1="587.86" y2="547.86" gradientUnits="userSpaceOnUse" xlink:href="#b"/>
  <linearGradient id="ab" x1="355.5" x2="237.5" y1="576.11" y2="526.61" gradientUnits="userSpaceOnUse" xlink:href="#b"/>
  <linearGradient id="aa" x1="357.5" x2="237" y1="551.86" y2="504.86" gradientUnits="userSpaceOnUse" xlink:href="#b"/>
  <linearGradient id="z" x1="372.92" x2="576" gradientUnits="userSpaceOnUse" xlink:href="#b"/>
  <linearGradient id="y" x1="373.14" x2="576.14" gradientUnits="userSpaceOnUse" xlink:href="#b"/>
  <linearGradient id="x" x1="428.23" x2="593.36" y1="760.08" y2="685.22" gradientUnits="userSpaceOnUse" xlink:href="#b"/>
  <linearGradient id="w" x1="453.05" x2="592.31" y1="770.16" y2="702.14" gradientUnits="userSpaceOnUse" xlink:href="#b"/>
  <linearGradient id="v" x1="469.57" x2="595.45" y1="779.23" y2="718.37" gradientUnits="userSpaceOnUse" xlink:href="#b"/>
  <linearGradient id="u" x1="434.52" x2="587.71" y1="811.17" y2="735.7" gradientUnits="userSpaceOnUse" xlink:href="#b"/>
  <linearGradient id="t" x1="427.75" x2="591.52" y1="836.18" y2="747.27" gradientUnits="userSpaceOnUse" xlink:href="#b"/>
  <linearGradient id="s" x1="399.38" x2="595.13" y1="867.77" y2="761.28" gradientUnits="userSpaceOnUse" xlink:href="#b"/>
  <linearGradient id="r" x1="451.19" x2="458.57" y1="507.3" y2="528.13" gradientUnits="userSpaceOnUse" xlink:href="#c"/>
  <linearGradient id="q" x1="158.6" x2="189.3" y1="384.15" y2="459.81" gradientUnits="userSpaceOnUse" xlink:href="#b"/>
  <linearGradient id="p" x1="186.18" x2="219.7" y1="391.57" y2="498.34" gradientUnits="userSpaceOnUse" xlink:href="#b"/>
  <linearGradient id="o" x1="198.2" x2="252.23" y1="338.18" y2="510.72" gradientUnits="userSpaceOnUse" xlink:href="#b"/>
  <radialGradient id="n" cx="571.78" cy="385.04" r="116.17" gradientTransform="matrix(-1.9319 -1.057 .60433 -1.1045 1245 1473.4)" gradientUnits="userSpaceOnUse" xlink:href="#b"/>
  <radialGradient id="m" cx="273.09" cy="355.72" r="108.33" gradientTransform="matrix(-.09315 -.55328 .922 -.15523 -9.4403 539.55)" gradientUnits="userSpaceOnUse" xlink:href="#b"/>
  <radialGradient id="l" cx="279.43" cy="365.68" r="103.03" gradientTransform="matrix(.95882 -.17844 .05677 .30502 -9.371 295.24)" gradientUnits="userSpaceOnUse" xlink:href="#b"/>
  <radialGradient id="k" cx="259.86" cy="381.67" r="99.141" gradientTransform="matrix(1 -.22823 .07492 .32825 -28.594 315.7)" gradientUnits="userSpaceOnUse" xlink:href="#b"/>
  <radialGradient id="j" cx="247.49" cy="419.55" r="101.62" gradientTransform="matrix(.96521 -.22963 .07684 .32296 -23.626 332.35)" gradientUnits="userSpaceOnUse" xlink:href="#b"/>
  <radialGradient id="i" cx="275.42" cy="428.34" r="106.21" gradientTransform="matrix(.94674 -.23301 .07511 .30517 -17.504 361.8)" gradientUnits="userSpaceOnUse" xlink:href="#b"/>
  <radialGradient id="g" cx="319.2" cy="442.35" r="105.86" gradientTransform="matrix(1 -.22711 .06688 .29447 -29.876 381.18)" gradientUnits="userSpaceOnUse" xlink:href="#b"/>
  <radialGradient id="f" cx="322.44" cy="460.87" r="107.27" gradientTransform="matrix(.98682 -.24389 .0715 .28929 -28.7 406.19)" gradientUnits="userSpaceOnUse" xlink:href="#b"/>
  <radialGradient id="h" cx="400.5" cy="492.61" r="153" gradientTransform="matrix(1.2371 -1.1385 1.0949 1.1897 -632.81 362.5)" gradientUnits="userSpaceOnUse" xlink:href="#b"/>
  <radialGradient id="e" cx="306.56" cy="590.61" r="58.942" gradientTransform="matrix(.82147 -.57025 .89071 1.2831 -471.33 7.6206)" gradientUnits="userSpaceOnUse" xlink:href="#c"/>
  <radialGradient id="d" cx="1149.9" cy="604.84" r="99.996" gradientTransform="matrix(-.6028 -.31301 .3504 -.67479 905.43 1359.6)" gradientUnits="userSpaceOnUse" xlink:href="#c"/>
 </defs>
 <g transform="translate(-156.48 -296.36)">
  <path d="m192.23 336.17 55.053 160.11 177.28-47.477c-18.732-62.8-23.012-91.576-37.376-144.45l-194.96 31.82z" fill="url(#n)" fill-rule="evenodd" stroke="#130b00" stroke-width="2"/>
  <path d="m386.38 305.86s-33.335 26.769-29.294 67.175 65.155 73.236 65.155 73.236l-35.86-140.41z" fill="url(#as)" fill-rule="evenodd" stroke="#130b00" stroke-width="2"/>
  <path d="m190.92 336.06 194.45-32.527-16.971 20.506-198.7 38.891 21.213-26.87z" fill="url(#m)" fill-rule="evenodd" stroke="#130b00"/>
  <path d="m366.99 325.46-9.1495 23.67-195.91 41.262 7.7782-27.792 197.28-37.141z" fill="url(#l)" fill-rule="evenodd" stroke="#130b00"/>
  <path d="m358.5 348.79-195.87 42.426-1.4142 23.335 193.79-40.176 3.4926-25.585z" fill="url(#k)" fill-rule="evenodd" stroke="#130b00"/>
  <path d="m355.67 373.54 8.4853 22.627-194.45 43.841-7.7782-24.749 193.75-41.719z" fill="url(#j)" fill-rule="evenodd" stroke="#130b00"/>
  <path d="m364.87 395.46 16.263 18.385-196.58 47.376-14.849-20.506 195.16-45.255z" fill="url(#i)" fill-rule="evenodd" stroke="#130b00"/>
  <path d="m379.01 415.26 16.971 14.142-192.33 48.79-18.385-17.678 193.75-45.255z" fill="url(#g)" fill-rule="evenodd" stroke="#130b00"/>
  <path d="m393.86 429.4 25.456 15.556-182.43 47.376-31.113-14.142 188.09-48.79z" fill="url(#f)" fill-rule="evenodd" stroke="#130b00"/>
  <path d="m428.5 442.86-4 4-37.5-143.5 4.5-6 37 145.5z" fill="url(#an)" fill-rule="evenodd" stroke="#130b00"/>
  <path d="m390.5 296.86-4 7-196 31.5 1-5.5 199-33z" fill="url(#am)" fill-rule="evenodd" stroke="#130b00"/>
  <path d="m173.24 349.5 48.437 140.71 24.395 6.364-55.154-165.46-17.678 18.385z" fill="url(#o)" fill-rule="evenodd" stroke="#130b00"/>
  <path d="m173.24 350.21-7.0711 16.263 36.062 112.43 18.531 10.064-47.523-138.76z" fill="url(#p)" fill-rule="evenodd" stroke="#130b00"/>
  <path d="m166.17 366.47-7.0711 36.77 15.556 45.255 27.091 30.229-35.576-112.25z" fill="url(#q)" fill-rule="evenodd" stroke="#130b00"/>
  <path d="m166.99 440c-7.1056-14.154-9.9727-25.795-10.014-40.659-0.0508-18.348 4.3643-33.631 15.74-50.638 4.8281-7.218 17.92-19.86 18.763-19.003 0.57958 0.58957 55.222 165.92 55.222 167.05 0 0.95712-8.0061-1.6746-14.584-3.5294-28.365-7.5497-48.943-27.195-65.128-53.22zm60.281 39.618c0-0.62367-43.176-125.73-43.738-126.74-0.67891-1.2131-6.3333 10.474-9.2682 19.157-4.2563 12.592-5.8998 18.356-5.2883 30.132 0.68174 13.128 1.4863 16.441 5.9737 27.224 3.8223 9.1842 8.9482 15.019 18.352 24.424 8.6202 8.6212 15.1 13.994 25.423 21.08 6.7634 4.6425 8.5462 5.6273 8.5462 4.7208z" fill="url(#ak)" stroke="#5a5a00" stroke-linecap="round"/>
  <g transform="matrix(.78987 .06384 -.06384 .78987 324.75 100.05)" fill-rule="evenodd" stroke="#130b00">
   <path d="m85.56 267.47 48.083 145.66 23.114 11.217-57.762-170.32-13.435 13.435z" fill="url(#aj)"/>
   <path d="m84.146 267.47-9.8995 21.92 36.301 111.46 23.096 12.99-49.497-146.37z" fill="url(#ai)"/>
   <path d="m73.539 292.22-6.364 33.941 15.556 45.255 27.686 29.464-36.879-108.66z" fill="url(#ah)"/>
  </g>
  <path d="m191.5 329.86 5-1 56 165.5-5.721 1.7652-55.279-166.27z" fill="url(#al)" fill-rule="evenodd" stroke="#130b00"/>
  <path d="m423.25 447.28 12.122 111.12 97.985 19.193 14.647-113.64-124.75-16.668z" fill="url(#aq)" fill-rule="evenodd" stroke="#130b00" stroke-width="2"/>
  <path d="m247.93 495.47 18.751 115.46 169.71-53.538-11.112-109.6-177.34 47.679z" fill="url(#ar)" fill-rule="evenodd" stroke="#130b00" stroke-width="2"/>
  <image transform="matrix(.98003,-.19887,.19887,.98003,0,0)" x="237.74" y="688.34" width="19.333" height="30" xlink:href="pastedpic_08082009_151314.png"/>
  <path transform="translate(-271.43 130.2)" d="m655.59 344.75c0 5.8579-7.2362 10.607-16.162 10.607s-16.162-4.7487-16.162-10.607 7.2362-10.607 16.162-10.607 16.162 4.7487 16.162 10.607z" fill="url(#a)" stroke="#9c7600"/>
  <path transform="translate(-271.68 127.17)" d="m655.59 344.75c0 5.8579-7.2362 10.607-16.162 10.607s-16.162-4.7487-16.162-10.607 7.2362-10.607 16.162-10.607 16.162 4.7487 16.162 10.607z" fill="url(#a)" stroke="#9c7600"/>
  <path transform="matrix(-1 0 0 -1 1082.5 806.97)" d="m655.59 344.75c0 5.8579-7.2362 10.607-16.162 10.607s-16.162-4.7487-16.162-10.607 7.2362-10.607 16.162-10.607 16.162 4.7487 16.162 10.607z" fill="url(#a)" stroke="#9c7600"/>
  <path transform="matrix(-1 0 0 -1 1082.7 810)" d="m655.59 344.75c0 5.8579-7.2362 10.607-16.162 10.607s-16.162-4.7487-16.162-10.607 7.2362-10.607 16.162-10.607 16.162 4.7487 16.162 10.607z" fill="url(#a)" stroke="#9c7600"/>
  <path transform="matrix(.68143 .73188 -.73188 .68143 199.55 -208.28)" d="m655.59 344.75c0 5.8579-7.2362 10.607-16.162 10.607s-16.162-4.7487-16.162-10.607 7.2362-10.607 16.162-10.607 16.162 4.7487 16.162 10.607z" fill="url(#a)" stroke="#9c7600"/>
  <path transform="matrix(.68143 .73188 -.73188 .68143 201.59 -210.53)" d="m655.59 344.75c0 5.8579-7.2362 10.607-16.162 10.607s-16.162-4.7487-16.162-10.607 7.2362-10.607 16.162-10.607 16.162 4.7487 16.162 10.607z" fill="url(#a)" stroke="#9c7600"/>
  <path transform="translate(-280.39 156)" d="m655.59 344.75c0 5.8579-7.2362 10.607-16.162 10.607s-16.162-4.7487-16.162-10.607 7.2362-10.607 16.162-10.607 16.162 4.7487 16.162 10.607z" fill="url(#a)" stroke="#9c7600"/>
  <path transform="translate(-280.64 152.97)" d="m655.59 344.75c0 5.8579-7.2362 10.607-16.162 10.607s-16.162-4.7487-16.162-10.607 7.2362-10.607 16.162-10.607 16.162 4.7487 16.162 10.607z" fill="url(#a)" stroke="#9c7600"/>
  <path transform="matrix(.91259 -.40888 .40888 .91259 -306.74 460.83)" d="m655.59 344.75c0 5.8579-7.2362 10.607-16.162 10.607s-16.162-4.7487-16.162-10.607 7.2362-10.607 16.162-10.607 16.162 4.7487 16.162 10.607z" fill="url(#a)" stroke="#9c7600"/>
  <path transform="matrix(.91259 -.40888 .40888 .91259 -308.21 458.17)" d="m655.59 344.75c0 5.8579-7.2362 10.607-16.162 10.607s-16.162-4.7487-16.162-10.607 7.2362-10.607 16.162-10.607 16.162 4.7487 16.162 10.607z" fill="url(#a)" stroke="#9c7600"/>
  <path transform="matrix(.38776 -.92176 .92176 .38776 -133.99 929.19)" d="m655.59 344.75c0 5.8579-7.2362 10.607-16.162 10.607s-16.162-4.7487-16.162-10.607 7.2362-10.607 16.162-10.607 16.162 4.7487 16.162 10.607z" fill="url(#a)" stroke="#9c7600"/>
  <path transform="matrix(.38776 -.92176 .92176 .38776 -136.88 928.25)" d="m655.59 344.75c0 5.8579-7.2362 10.607-16.162 10.607s-16.162-4.7487-16.162-10.607 7.2362-10.607 16.162-10.607 16.162 4.7487 16.162 10.607z" fill="url(#a)" stroke="#9c7600"/>
  <path transform="matrix(-.7472 .6646 -.6646 -.7472 1133.3 321.19)" d="m655.59 344.75c0 5.8579-7.2362 10.607-16.162 10.607s-16.162-4.7487-16.162-10.607 7.2362-10.607 16.162-10.607 16.162 4.7487 16.162 10.607z" fill="url(#a)" stroke="#9c7600"/>
  <path transform="matrix(-.7472 .6646 -.6646 -.7472 1135.5 323.29)" d="m655.59 344.75c0 5.8579-7.2362 10.607-16.162 10.607s-16.162-4.7487-16.162-10.607 7.2362-10.607 16.162-10.607 16.162 4.7487 16.162 10.607z" fill="url(#a)" stroke="#9c7600"/>
  <path transform="translate(-228.96 149.39)" d="m655.59 344.75c0 5.8579-7.2362 10.607-16.162 10.607s-16.162-4.7487-16.162-10.607 7.2362-10.607 16.162-10.607 16.162 4.7487 16.162 10.607z" fill="url(#a)" stroke="#9c7600"/>
  <path transform="translate(-229.21 146.36)" d="m655.59 344.75c0 5.8579-7.2362 10.607-16.162 10.607s-16.162-4.7487-16.162-10.607 7.2362-10.607 16.162-10.607 16.162 4.7487 16.162 10.607z" fill="url(#a)" stroke="#9c7600"/>
  <path transform="matrix(-.54392 .83914 -.83914 -.54392 966.83 140.59)" d="m655.59 344.75c0 5.8579-7.2362 10.607-16.162 10.607s-16.162-4.7487-16.162-10.607 7.2362-10.607 16.162-10.607 16.162 4.7487 16.162 10.607z" fill="url(#a)" stroke="#9c7600"/>
  <path transform="matrix(-.54392 .83914 -.83914 -.54392 969.51 142.03)" d="m655.59 344.75c0 5.8579-7.2362 10.607-16.162 10.607s-16.162-4.7487-16.162-10.607 7.2362-10.607 16.162-10.607 16.162 4.7487 16.162 10.607z" fill="url(#a)" stroke="#9c7600"/>
  <path transform="matrix(.17536 .9845 -.9845 .17536 539.45 -180.13)" d="m655.59 344.75c0 5.8579-7.2362 10.607-16.162 10.607s-16.162-4.7487-16.162-10.607 7.2362-10.607 16.162-10.607 16.162 4.7487 16.162 10.607z" fill="url(#a)" stroke="#9c7600"/>
  <path transform="matrix(.17536 .9845 -.9845 .17536 542.39 -180.91)" d="m655.59 344.75c0 5.8579-7.2362 10.607-16.162 10.607s-16.162-4.7487-16.162-10.607 7.2362-10.607 16.162-10.607 16.162 4.7487 16.162 10.607z" fill="url(#a)" stroke="#9c7600"/>
  <path transform="matrix(.26612 -.96394 .96394 .26612 -165.45 1035.7)" d="m655.59 344.75c0 5.8579-7.2362 10.607-16.162 10.607s-16.162-4.7487-16.162-10.607 7.2362-10.607 16.162-10.607 16.162 4.7487 16.162 10.607z" fill="url(#a)" stroke="#9c7600"/>
  <path transform="matrix(.26612 -.96394 .96394 .26612 -168.44 1035.1)" d="m655.59 344.75c0 5.8579-7.2362 10.607-16.162 10.607s-16.162-4.7487-16.162-10.607 7.2362-10.607 16.162-10.607 16.162 4.7487 16.162 10.607z" fill="url(#a)" stroke="#9c7600"/>
  <g transform="translate(-171.47 166.21)" fill="url(#a)" stroke="#9c7600">
   <path transform="matrix(-.83948 .54339 -.54339 -.83948 1226.8 294.87)" d="m655.59 344.75c0 5.8579-7.2362 10.607-16.162 10.607s-16.162-4.7487-16.162-10.607 7.2362-10.607 16.162-10.607 16.162 4.7487 16.162 10.607z"/>
   <path transform="matrix(-.83948 .54339 -.54339 -.83948 1228.6 297.27)" d="m655.59 344.75c0 5.8579-7.2362 10.607-16.162 10.607s-16.162-4.7487-16.162-10.607 7.2362-10.607 16.162-10.607 16.162 4.7487 16.162 10.607z"/>
  </g>
  <path transform="matrix(.43635 -.89978 .89978 .43635 -190.61 933.4)" d="m655.59 344.75c0 5.8579-7.2362 10.607-16.162 10.607s-16.162-4.7487-16.162-10.607 7.2362-10.607 16.162-10.607 16.162 4.7487 16.162 10.607z" fill="url(#a)" stroke="#9c7600"/>
  <path transform="matrix(.43635 -.89978 .89978 .43635 -193.44 932.3)" d="m655.59 344.75c0 5.8579-7.2362 10.607-16.162 10.607s-16.162-4.7487-16.162-10.607 7.2362-10.607 16.162-10.607 16.162 4.7487 16.162 10.607z" fill="url(#a)" stroke="#9c7600"/>
  <path transform="matrix(-.29536 -.95539 .95539 -.29536 227.33 1158.5)" d="m655.59 344.75c0 5.8579-7.2362 10.607-16.162 10.607s-16.162-4.7487-16.162-10.607 7.2362-10.607 16.162-10.607 16.162 4.7487 16.162 10.607z" fill="url(#a)" stroke="#9c7600"/>
  <path transform="matrix(-.29536 -.95539 .95539 -.29536 224.51 1159.6)" d="m655.59 344.75c0 5.8579-7.2362 10.607-16.162 10.607s-16.162-4.7487-16.162-10.607 7.2362-10.607 16.162-10.607 16.162 4.7487 16.162 10.607z" fill="url(#a)" stroke="#9c7600"/>
  <g transform="translate(-273.78 196.71)" fill="url(#a)" stroke="#9c7600">
   <path transform="matrix(.76611 -.64271 .64271 .76611 -50.043 485.37)" d="m655.59 344.75c0 5.8579-7.2362 10.607-16.162 10.607s-16.162-4.7487-16.162-10.607 7.2362-10.607 16.162-10.607 16.162 4.7487 16.162 10.607z"/>
   <path transform="matrix(.76611 -.64271 .64271 .76611 -52.184 483.21)" d="m655.59 344.75c0 5.8579-7.2362 10.607-16.162 10.607s-16.162-4.7487-16.162-10.607 7.2362-10.607 16.162-10.607 16.162 4.7487 16.162 10.607z"/>
  </g>
  <path transform="matrix(-1 0 0 -1 1097.5 811.93)" d="m655.59 344.75c0 5.8579-7.2362 10.607-16.162 10.607s-16.162-4.7487-16.162-10.607 7.2362-10.607 16.162-10.607 16.162 4.7487 16.162 10.607z" fill="url(#a)" stroke="#9c7600"/>
  <path transform="matrix(-1 0 0 -1 1097.7 814.96)" d="m655.59 344.75c0 5.8579-7.2362 10.607-16.162 10.607s-16.162-4.7487-16.162-10.607 7.2362-10.607 16.162-10.607 16.162 4.7487 16.162 10.607z" fill="url(#a)" stroke="#9c7600"/>
  <path transform="matrix(-.54392 .83914 -.83914 -.54392 990.36 134.83)" d="m655.59 344.75c0 5.8579-7.2362 10.607-16.162 10.607s-16.162-4.7487-16.162-10.607 7.2362-10.607 16.162-10.607 16.162 4.7487 16.162 10.607z" fill="url(#a)" stroke="#9c7600"/>
  <path transform="matrix(-.54392 .83914 -.83914 -.54392 993.04 136.26)" d="m655.59 344.75c0 5.8579-7.2362 10.607-16.162 10.607s-16.162-4.7487-16.162-10.607 7.2362-10.607 16.162-10.607 16.162 4.7487 16.162 10.607z" fill="url(#a)" stroke="#9c7600"/>
  <path transform="matrix(-.54392 .83914 -.83914 -.54392 988.95 174.43)" d="m655.59 344.75c0 5.8579-7.2362 10.607-16.162 10.607s-16.162-4.7487-16.162-10.607 7.2362-10.607 16.162-10.607 16.162 4.7487 16.162 10.607z" fill="url(#a)" stroke="#9c7600"/>
  <path transform="matrix(-.54392 .83914 -.83914 -.54392 991.63 175.86)" d="m655.59 344.75c0 5.8579-7.2362 10.607-16.162 10.607s-16.162-4.7487-16.162-10.607 7.2362-10.607 16.162-10.607 16.162 4.7487 16.162 10.607z" fill="url(#a)" stroke="#9c7600"/>
  <path transform="matrix(-.29536 -.95539 .95539 -.29536 154.7 1219.4)" d="m655.59 344.75c0 5.8579-7.2362 10.607-16.162 10.607s-16.162-4.7487-16.162-10.607 7.2362-10.607 16.162-10.607 16.162 4.7487 16.162 10.607z" fill="url(#a)" stroke="#9c7600"/>
  <path transform="matrix(-.29536 -.95539 .95539 -.29536 151.88 1220.5)" d="m655.59 344.75c0 5.8579-7.2362 10.607-16.162 10.607s-16.162-4.7487-16.162-10.607 7.2362-10.607 16.162-10.607 16.162 4.7487 16.162 10.607z" fill="url(#a)" stroke="#9c7600"/>
  <path transform="matrix(-.29536 -.95539 .95539 -.29536 297.85 1189.3)" d="m655.59 344.75c0 5.8579-7.2362 10.607-16.162 10.607s-16.162-4.7487-16.162-10.607 7.2362-10.607 16.162-10.607 16.162 4.7487 16.162 10.607z" fill="url(#a)" stroke="#9c7600"/>
  <path transform="matrix(-.29536 -.95539 .95539 -.29536 295.03 1190.5)" d="m655.59 344.75c0 5.8579-7.2362 10.607-16.162 10.607s-16.162-4.7487-16.162-10.607 7.2362-10.607 16.162-10.607 16.162 4.7487 16.162 10.607z" fill="url(#a)" stroke="#9c7600"/>
  <path transform="matrix(-.29536 -.95539 .95539 -.29536 235.31 1225)" d="m655.59 344.75c0 5.8579-7.2362 10.607-16.162 10.607s-16.162-4.7487-16.162-10.607 7.2362-10.607 16.162-10.607 16.162 4.7487 16.162 10.607z" fill="url(#a)" stroke="#9c7600"/>
  <path transform="matrix(-.29536 -.95539 .95539 -.29536 232.49 1226.2)" d="m655.59 344.75c0 5.8579-7.2362 10.607-16.162 10.607s-16.162-4.7487-16.162-10.607 7.2362-10.607 16.162-10.607 16.162 4.7487 16.162 10.607z" fill="url(#a)" stroke="#9c7600"/>
  <path transform="translate(-292.76 113.35)" d="m655.59 344.75c0 5.8579-7.2362 10.607-16.162 10.607s-16.162-4.7487-16.162-10.607 7.2362-10.607 16.162-10.607 16.162 4.7487 16.162 10.607z" fill="url(#a)" stroke="#9c7600"/>
  <path transform="translate(-293.02 110.32)" d="m655.59 344.75c0 5.8579-7.2362 10.607-16.162 10.607s-16.162-4.7487-16.162-10.607 7.2362-10.607 16.162-10.607 16.162 4.7487 16.162 10.607z" fill="url(#a)" stroke="#9c7600"/>
  <path transform="matrix(.68143 .73188 -.73188 .68143 155.46 -185.88)" d="m655.59 344.75c0 5.8579-7.2362 10.607-16.162 10.607s-16.162-4.7487-16.162-10.607 7.2362-10.607 16.162-10.607 16.162 4.7487 16.162 10.607z" fill="url(#a)" stroke="#9c7600"/>
  <path transform="matrix(.68143 .73188 -.73188 .68143 157.51 -188.13)" d="m655.59 344.75c0 5.8579-7.2362 10.607-16.162 10.607s-16.162-4.7487-16.162-10.607 7.2362-10.607 16.162-10.607 16.162 4.7487 16.162 10.607z" fill="url(#a)" stroke="#9c7600"/>
  <path transform="translate(-301.72 139.15)" d="m655.59 344.75c0 5.8579-7.2362 10.607-16.162 10.607s-16.162-4.7487-16.162-10.607 7.2362-10.607 16.162-10.607 16.162 4.7487 16.162 10.607z" fill="url(#a)" stroke="#9c7600"/>
  <path transform="translate(-301.98 136.12)" d="m655.59 344.75c0 5.8579-7.2362 10.607-16.162 10.607s-16.162-4.7487-16.162-10.607 7.2362-10.607 16.162-10.607 16.162 4.7487 16.162 10.607z" fill="url(#a)" stroke="#9c7600"/>
  <path transform="matrix(.38776 -.92176 .92176 .38776 -155.32 912.33)" d="m655.59 344.75c0 5.8579-7.2362 10.607-16.162 10.607s-16.162-4.7487-16.162-10.607 7.2362-10.607 16.162-10.607 16.162 4.7487 16.162 10.607z" fill="url(#a)" stroke="#9c7600"/>
  <path transform="matrix(.38776 -.92176 .92176 .38776 -158.22 911.39)" d="m655.59 344.75c0 5.8579-7.2362 10.607-16.162 10.607s-16.162-4.7487-16.162-10.607 7.2362-10.607 16.162-10.607 16.162 4.7487 16.162 10.607z" fill="url(#a)" stroke="#9c7600"/>
  <path transform="matrix(-.7472 .6646 -.6646 -.7472 1112 304.34)" d="m655.59 344.75c0 5.8579-7.2362 10.607-16.162 10.607s-16.162-4.7487-16.162-10.607 7.2362-10.607 16.162-10.607 16.162 4.7487 16.162 10.607z" fill="url(#a)" stroke="#9c7600"/>
  <path transform="matrix(-.7472 .6646 -.6646 -.7472 1114.2 306.44)" d="m655.59 344.75c0 5.8579-7.2362 10.607-16.162 10.607s-16.162-4.7487-16.162-10.607 7.2362-10.607 16.162-10.607 16.162 4.7487 16.162 10.607z" fill="url(#a)" stroke="#9c7600"/>
  <path transform="translate(-247.29 135.03)" d="m655.59 344.75c0 5.8579-7.2362 10.607-16.162 10.607s-16.162-4.7487-16.162-10.607 7.2362-10.607 16.162-10.607 16.162 4.7487 16.162 10.607z" fill="url(#a)" stroke="#9c7600"/>
  <path transform="translate(-247.55 132)" d="m655.59 344.75c0 5.8579-7.2362 10.607-16.162 10.607s-16.162-4.7487-16.162-10.607 7.2362-10.607 16.162-10.607 16.162 4.7487 16.162 10.607z" fill="url(#a)" stroke="#9c7600"/>
  <path transform="matrix(-.54392 .83914 -.83914 -.54392 945.5 123.74)" d="m655.59 344.75c0 5.8579-7.2362 10.607-16.162 10.607s-16.162-4.7487-16.162-10.607 7.2362-10.607 16.162-10.607 16.162 4.7487 16.162 10.607z" fill="url(#a)" stroke="#9c7600"/>
  <path transform="matrix(-.54392 .83914 -.83914 -.54392 948.18 125.17)" d="m655.59 344.75c0 5.8579-7.2362 10.607-16.162 10.607s-16.162-4.7487-16.162-10.607 7.2362-10.607 16.162-10.607 16.162 4.7487 16.162 10.607z" fill="url(#a)" stroke="#9c7600"/>
  <path transform="matrix(.17536 .9845 -.9845 .17536 518.11 -196.98)" d="m655.59 344.75c0 5.8579-7.2362 10.607-16.162 10.607s-16.162-4.7487-16.162-10.607 7.2362-10.607 16.162-10.607 16.162 4.7487 16.162 10.607z" fill="url(#a)" stroke="#9c7600"/>
  <path transform="matrix(.17536 .9845 -.9845 .17536 521.05 -197.76)" d="m655.59 344.75c0 5.8579-7.2362 10.607-16.162 10.607s-16.162-4.7487-16.162-10.607 7.2362-10.607 16.162-10.607 16.162 4.7487 16.162 10.607z" fill="url(#a)" stroke="#9c7600"/>
  <path transform="matrix(.26612 -.96394 .96394 .26612 -207.79 1024.8)" d="m655.59 344.75c0 5.8579-7.2362 10.607-16.162 10.607s-16.162-4.7487-16.162-10.607 7.2362-10.607 16.162-10.607 16.162 4.7487 16.162 10.607z" fill="url(#a)" stroke="#9c7600"/>
  <path transform="matrix(.26612 -.96394 .96394 .26612 -210.78 1024.3)" d="m655.59 344.75c0 5.8579-7.2362 10.607-16.162 10.607s-16.162-4.7487-16.162-10.607 7.2362-10.607 16.162-10.607 16.162 4.7487 16.162 10.607z" fill="url(#a)" stroke="#9c7600"/>
  <g transform="translate(-195.81 174.36)" fill="url(#a)" stroke="#9c7600">
   <path transform="matrix(-.83948 .54339 -.54339 -.83948 1226.8 294.87)" d="m655.59 344.75c0 5.8579-7.2362 10.607-16.162 10.607s-16.162-4.7487-16.162-10.607 7.2362-10.607 16.162-10.607 16.162 4.7487 16.162 10.607z"/>
   <path transform="matrix(-.83948 .54339 -.54339 -.83948 1228.6 297.27)" d="m655.59 344.75c0 5.8579-7.2362 10.607-16.162 10.607s-16.162-4.7487-16.162-10.607 7.2362-10.607 16.162-10.607 16.162 4.7487 16.162 10.607z"/>
  </g>
  <path transform="matrix(.43635 -.89978 .89978 .43635 -318.94 916.79)" d="m655.59 344.75c0 5.8579-7.2362 10.607-16.162 10.607s-16.162-4.7487-16.162-10.607 7.2362-10.607 16.162-10.607 16.162 4.7487 16.162 10.607z" fill="url(#a)" stroke="#9c7600"/>
  <path transform="matrix(.43635 -.89978 .89978 .43635 -321.78 915.7)" d="m655.59 344.75c0 5.8579-7.2362 10.607-16.162 10.607s-16.162-4.7487-16.162-10.607 7.2362-10.607 16.162-10.607 16.162 4.7487 16.162 10.607z" fill="url(#a)" stroke="#9c7600"/>
  <path transform="matrix(-.54392 .83914 -.83914 -.54392 948.03 135.97)" d="m655.59 344.75c0 5.8579-7.2362 10.607-16.162 10.607s-16.162-4.7487-16.162-10.607 7.2362-10.607 16.162-10.607 16.162 4.7487 16.162 10.607z" fill="url(#a)" stroke="#9c7600"/>
  <path transform="matrix(-.54392 .83914 -.83914 -.54392 950.71 137.41)" d="m655.59 344.75c0 5.8579-7.2362 10.607-16.162 10.607s-16.162-4.7487-16.162-10.607 7.2362-10.607 16.162-10.607 16.162 4.7487 16.162 10.607z" fill="url(#a)" stroke="#9c7600"/>
  <path transform="matrix(-.54392 .83914 -.83914 -.54392 967.61 157.57)" d="m655.59 344.75c0 5.8579-7.2362 10.607-16.162 10.607s-16.162-4.7487-16.162-10.607 7.2362-10.607 16.162-10.607 16.162 4.7487 16.162 10.607z" fill="url(#a)" stroke="#9c7600"/>
  <path transform="matrix(-.54392 .83914 -.83914 -.54392 970.29 159.01)" d="m655.59 344.75c0 5.8579-7.2362 10.607-16.162 10.607s-16.162-4.7487-16.162-10.607 7.2362-10.607 16.162-10.607 16.162 4.7487 16.162 10.607z" fill="url(#a)" stroke="#9c7600"/>
  <path transform="matrix(-.29536 -.95539 .95539 -.29536 287.51 1178.5)" d="m655.59 344.75c0 5.8579-7.2362 10.607-16.162 10.607s-16.162-4.7487-16.162-10.607 7.2362-10.607 16.162-10.607 16.162 4.7487 16.162 10.607z" fill="url(#a)" stroke="#9c7600"/>
  <path transform="matrix(-.29536 -.95539 .95539 -.29536 284.69 1179.6)" d="m655.59 344.75c0 5.8579-7.2362 10.607-16.162 10.607s-16.162-4.7487-16.162-10.607 7.2362-10.607 16.162-10.607 16.162 4.7487 16.162 10.607z" fill="url(#a)" stroke="#9c7600"/>
  <path transform="matrix(-.29536 -.95539 .95539 -.29536 213.98 1208.2)" d="m655.59 344.75c0 5.8579-7.2362 10.607-16.162 10.607s-16.162-4.7487-16.162-10.607 7.2362-10.607 16.162-10.607 16.162 4.7487 16.162 10.607z" fill="url(#a)" stroke="#9c7600"/>
  <path transform="matrix(-.29536 -.95539 .95539 -.29536 211.15 1209.3)" d="m655.59 344.75c0 5.8579-7.2362 10.607-16.162 10.607s-16.162-4.7487-16.162-10.607 7.2362-10.607 16.162-10.607 16.162 4.7487 16.162 10.607z" fill="url(#a)" stroke="#9c7600"/>
  <path d="m358.09 547.54 12.362 126.4 170.94-101.1 5.5609-103.56-188.86 78.256z" fill="url(#ap)" fill-rule="evenodd" stroke="#130b00" stroke-width="12"/>
  <path transform="translate(-252.73 107.87)" d="m655.59 344.75c0 5.8579-7.2362 10.607-16.162 10.607s-16.162-4.7487-16.162-10.607 7.2362-10.607 16.162-10.607 16.162 4.7487 16.162 10.607z" fill="url(#a)" stroke="#9c7600"/>
  <path transform="translate(-252.99 104.84)" d="m655.59 344.75c0 5.8579-7.2362 10.607-16.162 10.607s-16.162-4.7487-16.162-10.607 7.2362-10.607 16.162-10.607 16.162 4.7487 16.162 10.607z" fill="url(#a)" stroke="#9c7600"/>
  <path transform="matrix(-1 0 0 -1 1035.5 804.51)" d="m655.59 344.75c0 5.8579-7.2362 10.607-16.162 10.607s-16.162-4.7487-16.162-10.607 7.2362-10.607 16.162-10.607 16.162 4.7487 16.162 10.607z" fill="url(#a)" stroke="#9c7600"/>
  <path transform="matrix(-1 0 0 -1 1035.8 807.54)" d="m655.59 344.75c0 5.8579-7.2362 10.607-16.162 10.607s-16.162-4.7487-16.162-10.607 7.2362-10.607 16.162-10.607 16.162 4.7487 16.162 10.607z" fill="url(#a)" stroke="#9c7600"/>
  <path transform="matrix(.38776 -.92176 .92176 .38776 -191.93 920.73)" d="m655.59 344.75c0 5.8579-7.2362 10.607-16.162 10.607s-16.162-4.7487-16.162-10.607 7.2362-10.607 16.162-10.607 16.162 4.7487 16.162 10.607z" fill="url(#a)" stroke="#9c7600"/>
  <path transform="matrix(.38776 -.92176 .92176 .38776 -194.82 919.79)" d="m655.59 344.75c0 5.8579-7.2362 10.607-16.162 10.607s-16.162-4.7487-16.162-10.607 7.2362-10.607 16.162-10.607 16.162 4.7487 16.162 10.607z" fill="url(#a)" stroke="#9c7600"/>
  <path transform="matrix(-1 0 0 -1 1050.5 809.47)" d="m655.59 344.75c0 5.8579-7.2362 10.607-16.162 10.607s-16.162-4.7487-16.162-10.607 7.2362-10.607 16.162-10.607 16.162 4.7487 16.162 10.607z" fill="url(#a)" stroke="#9c7600"/>
  <path transform="matrix(-1 0 0 -1 1050.8 812.5)" d="m655.59 344.75c0 5.8579-7.2362 10.607-16.162 10.607s-16.162-4.7487-16.162-10.607 7.2362-10.607 16.162-10.607 16.162 4.7487 16.162 10.607z" fill="url(#a)" stroke="#9c7600"/>
  <path transform="matrix(-1 0 0 -1 990.75 807.37)" d="m655.59 344.75c0 5.8579-7.2362 10.607-16.162 10.607s-16.162-4.7487-16.162-10.607 7.2362-10.607 16.162-10.607 16.162 4.7487 16.162 10.607z" fill="url(#a)" stroke="#9c7600"/>
  <path transform="matrix(-1 0 0 -1 991 810.4)" d="m655.59 344.75c0 5.8579-7.2362 10.607-16.162 10.607s-16.162-4.7487-16.162-10.607 7.2362-10.607 16.162-10.607 16.162 4.7487 16.162 10.607z" fill="url(#a)" stroke="#9c7600"/>
  <path transform="matrix(.68143 .73188 -.73188 .68143 184.94 -216.73)" d="m655.59 344.75c0 5.8579-7.2362 10.607-16.162 10.607s-16.162-4.7487-16.162-10.607 7.2362-10.607 16.162-10.607 16.162 4.7487 16.162 10.607z" fill="url(#a)" stroke="#9c7600"/>
  <path transform="matrix(.68143 .73188 -.73188 .68143 186.98 -218.98)" d="m655.59 344.75c0 5.8579-7.2362 10.607-16.162 10.607s-16.162-4.7487-16.162-10.607 7.2362-10.607 16.162-10.607 16.162 4.7487 16.162 10.607z" fill="url(#a)" stroke="#9c7600"/>
  <path transform="matrix(.38776 -.92176 .92176 .38776 -285.27 962.87)" d="m655.59 344.75c0 5.8579-7.2362 10.607-16.162 10.607s-16.162-4.7487-16.162-10.607 7.2362-10.607 16.162-10.607 16.162 4.7487 16.162 10.607z" fill="url(#a)" stroke="#9c7600"/>
  <path transform="matrix(.38776 -.92176 .92176 .38776 -288.16 961.93)" d="m655.59 344.75c0 5.8579-7.2362 10.607-16.162 10.607s-16.162-4.7487-16.162-10.607 7.2362-10.607 16.162-10.607 16.162 4.7487 16.162 10.607z" fill="url(#a)" stroke="#9c7600"/>
  <path transform="matrix(-.7472 .6646 -.6646 -.7472 1040.6 307.2)" d="m655.59 344.75c0 5.8579-7.2362 10.607-16.162 10.607s-16.162-4.7487-16.162-10.607 7.2362-10.607 16.162-10.607 16.162 4.7487 16.162 10.607z" fill="url(#a)" stroke="#9c7600"/>
  <path transform="matrix(-.7472 .6646 -.6646 -.7472 1042.8 309.29)" d="m655.59 344.75c0 5.8579-7.2362 10.607-16.162 10.607s-16.162-4.7487-16.162-10.607 7.2362-10.607 16.162-10.607 16.162 4.7487 16.162 10.607z" fill="url(#a)" stroke="#9c7600"/>
  <path transform="matrix(-1 0 0 -1 1162.5 813.42)" d="m655.59 344.75c0 5.8579-7.2362 10.607-16.162 10.607s-16.162-4.7487-16.162-10.607 7.2362-10.607 16.162-10.607 16.162 4.7487 16.162 10.607z" fill="url(#a)" stroke="#9c7600"/>
  <path transform="matrix(-1 0 0 -1 1162.8 816.45)" d="m655.59 344.75c0 5.8579-7.2362 10.607-16.162 10.607s-16.162-4.7487-16.162-10.607 7.2362-10.607 16.162-10.607 16.162 4.7487 16.162 10.607z" fill="url(#a)" stroke="#9c7600"/>
  <path transform="matrix(-.29536 -.95539 .95539 -.29536 224.33 1237.2)" d="m655.59 344.75c0 5.8579-7.2362 10.607-16.162 10.607s-16.162-4.7487-16.162-10.607 7.2362-10.607 16.162-10.607 16.162 4.7487 16.162 10.607z" fill="url(#a)" stroke="#9c7600"/>
  <path transform="matrix(-.29536 -.95539 .95539 -.29536 221.51 1238.3)" d="m655.59 344.75c0 5.8579-7.2362 10.607-16.162 10.607s-16.162-4.7487-16.162-10.607 7.2362-10.607 16.162-10.607 16.162 4.7487 16.162 10.607z" fill="url(#a)" stroke="#9c7600"/>
  <path transform="matrix(-1 0 0 -1 1007.1 811.46)" d="m655.59 344.75c0 5.8579-7.2362 10.607-16.162 10.607s-16.162-4.7487-16.162-10.607 7.2362-10.607 16.162-10.607 16.162 4.7487 16.162 10.607z" fill="url(#a)" stroke="#9c7600"/>
  <path transform="matrix(-1 0 0 -1 1007.4 814.49)" d="m655.59 344.75c0 5.8579-7.2362 10.607-16.162 10.607s-16.162-4.7487-16.162-10.607 7.2362-10.607 16.162-10.607 16.162 4.7487 16.162 10.607z" fill="url(#a)" stroke="#9c7600"/>
  <path transform="matrix(.68143 .73188 -.73188 .68143 272.77 -239.35)" d="m655.59 344.75c0 5.8579-7.2362 10.607-16.162 10.607s-16.162-4.7487-16.162-10.607 7.2362-10.607 16.162-10.607 16.162 4.7487 16.162 10.607z" fill="url(#a)" stroke="#9c7600"/>
  <path transform="matrix(.68143 .73188 -.73188 .68143 274.82 -241.59)" d="m655.59 344.75c0 5.8579-7.2362 10.607-16.162 10.607s-16.162-4.7487-16.162-10.607 7.2362-10.607 16.162-10.607 16.162 4.7487 16.162 10.607z" fill="url(#a)" stroke="#9c7600"/>
  <path transform="matrix(.38776 -.92176 .92176 .38776 -149.61 931.93)" d="m655.59 344.75c0 5.8579-7.2362 10.607-16.162 10.607s-16.162-4.7487-16.162-10.607 7.2362-10.607 16.162-10.607 16.162 4.7487 16.162 10.607z" fill="url(#a)" stroke="#9c7600"/>
  <path transform="matrix(.38776 -.92176 .92176 .38776 -152.5 930.99)" d="m655.59 344.75c0 5.8579-7.2362 10.607-16.162 10.607s-16.162-4.7487-16.162-10.607 7.2362-10.607 16.162-10.607 16.162 4.7487 16.162 10.607z" fill="url(#a)" stroke="#9c7600"/>
  <path transform="translate(-200.19 127.6)" d="m655.59 344.75c0 5.8579-7.2362 10.607-16.162 10.607s-16.162-4.7487-16.162-10.607 7.2362-10.607 16.162-10.607 16.162 4.7487 16.162 10.607z" fill="url(#a)" stroke="#9c7600"/>
  <path transform="translate(-200.45 124.57)" d="m655.59 344.75c0 5.8579-7.2362 10.607-16.162 10.607s-16.162-4.7487-16.162-10.607 7.2362-10.607 16.162-10.607 16.162 4.7487 16.162 10.607z" fill="url(#a)" stroke="#9c7600"/>
  <path transform="matrix(.99238 -.12324 .12324 .99238 -282.84 174.46)" d="m655.59 344.75c0 5.8579-7.2362 10.607-16.162 10.607s-16.162-4.7487-16.162-10.607 7.2362-10.607 16.162-10.607 16.162 4.7487 16.162 10.607z" fill="url(#a)" stroke="#9c7600"/>
  <path transform="matrix(.99238 -.12324 .12324 .99238 -283.46 171.49)" d="m655.59 344.75c0 5.8579-7.2362 10.607-16.162 10.607s-16.162-4.7487-16.162-10.607 7.2362-10.607 16.162-10.607 16.162 4.7487 16.162 10.607z" fill="url(#a)" stroke="#9c7600"/>
  <path transform="matrix(-.29536 -.95539 .95539 -.29536 181.4 1204.2)" d="m655.59 344.75c0 5.8579-7.2362 10.607-16.162 10.607s-16.162-4.7487-16.162-10.607 7.2362-10.607 16.162-10.607 16.162 4.7487 16.162 10.607z" fill="url(#a)" stroke="#9c7600"/>
  <path transform="matrix(-.29536 -.95539 .95539 -.29536 178.58 1205.3)" d="m655.59 344.75c0 5.8579-7.2362 10.607-16.162 10.607s-16.162-4.7487-16.162-10.607 7.2362-10.607 16.162-10.607 16.162 4.7487 16.162 10.607z" fill="url(#a)" stroke="#9c7600"/>
  <path transform="matrix(-1 0 0 -1 1123 816.98)" d="m655.59 344.75c0 5.8579-7.2362 10.607-16.162 10.607s-16.162-4.7487-16.162-10.607 7.2362-10.607 16.162-10.607 16.162 4.7487 16.162 10.607z" fill="url(#a)" stroke="#9c7600"/>
  <path transform="matrix(-1 0 0 -1 1123.3 820.01)" d="m655.59 344.75c0 5.8579-7.2362 10.607-16.162 10.607s-16.162-4.7487-16.162-10.607 7.2362-10.607 16.162-10.607 16.162 4.7487 16.162 10.607z" fill="url(#a)" stroke="#9c7600"/>
  <path transform="matrix(-.29536 -.95539 .95539 -.29536 356.13 1187.3)" d="m655.59 344.75c0 5.8579-7.2362 10.607-16.162 10.607s-16.162-4.7487-16.162-10.607 7.2362-10.607 16.162-10.607 16.162 4.7487 16.162 10.607z" fill="url(#a)" stroke="#9c7600"/>
  <path transform="matrix(-.29536 -.95539 .95539 -.29536 353.31 1188.4)" d="m655.59 344.75c0 5.8579-7.2362 10.607-16.162 10.607s-16.162-4.7487-16.162-10.607 7.2362-10.607 16.162-10.607 16.162 4.7487 16.162 10.607z" fill="url(#a)" stroke="#9c7600"/>
  <path transform="matrix(-1 0 0 -1 1057.5 815.45)" d="m655.59 344.75c0 5.8579-7.2362 10.607-16.162 10.607s-16.162-4.7487-16.162-10.607 7.2362-10.607 16.162-10.607 16.162 4.7487 16.162 10.607z" fill="url(#a)" stroke="#9c7600"/>
  <path transform="matrix(-1 0 0 -1 1057.8 818.48)" d="m655.59 344.75c0 5.8579-7.2362 10.607-16.162 10.607s-16.162-4.7487-16.162-10.607 7.2362-10.607 16.162-10.607 16.162 4.7487 16.162 10.607z" fill="url(#a)" stroke="#9c7600"/>
  <path transform="translate(-235.07 119.56)" d="m655.59 344.75c0 5.8579-7.2362 10.607-16.162 10.607s-16.162-4.7487-16.162-10.607 7.2362-10.607 16.162-10.607 16.162 4.7487 16.162 10.607z" fill="url(#a)" stroke="#9c7600"/>
  <path transform="translate(-235.32 116.53)" d="m655.59 344.75c0 5.8579-7.2362 10.607-16.162 10.607s-16.162-4.7487-16.162-10.607 7.2362-10.607 16.162-10.607 16.162 4.7487 16.162 10.607z" fill="url(#a)" stroke="#9c7600"/>
  <path transform="matrix(.99238 -.12324 .12324 .99238 -209.23 207.26)" d="m655.59 344.75c0 5.8579-7.2362 10.607-16.162 10.607s-16.162-4.7487-16.162-10.607 7.2362-10.607 16.162-10.607 16.162 4.7487 16.162 10.607z" fill="url(#a)" stroke="#9c7600"/>
  <path transform="matrix(.99238 -.12324 .12324 .99238 -209.85 204.28)" d="m655.59 344.75c0 5.8579-7.2362 10.607-16.162 10.607s-16.162-4.7487-16.162-10.607 7.2362-10.607 16.162-10.607 16.162 4.7487 16.162 10.607z" fill="url(#a)" stroke="#9c7600"/>
  <path transform="matrix(-.29536 -.95539 .95539 -.29536 212.99 1188.5)" d="m655.59 344.75c0 5.8579-7.2362 10.607-16.162 10.607s-16.162-4.7487-16.162-10.607 7.2362-10.607 16.162-10.607 16.162 4.7487 16.162 10.607z" fill="url(#a)" stroke="#9c7600"/>
  <path transform="matrix(-.29536 -.95539 .95539 -.29536 210.17 1189.6)" d="m655.59 344.75c0 5.8579-7.2362 10.607-16.162 10.607s-16.162-4.7487-16.162-10.607 7.2362-10.607 16.162-10.607 16.162 4.7487 16.162 10.607z" fill="url(#a)" stroke="#9c7600"/>
  <path transform="translate(-250.67 117.35)" d="m655.59 344.75c0 5.8579-7.2362 10.607-16.162 10.607s-16.162-4.7487-16.162-10.607 7.2362-10.607 16.162-10.607 16.162 4.7487 16.162 10.607z" fill="url(#a)" stroke="#9c7600"/>
  <path transform="translate(-250.93 114.32)" d="m655.59 344.75c0 5.8579-7.2362 10.607-16.162 10.607s-16.162-4.7487-16.162-10.607 7.2362-10.607 16.162-10.607 16.162 4.7487 16.162 10.607z" fill="url(#a)" stroke="#9c7600"/>
  <path transform="matrix(.99238 -.12324 .12324 .99238 -209.04 226.53)" d="m655.59 344.75c0 5.8579-7.2362 10.607-16.162 10.607s-16.162-4.7487-16.162-10.607 7.2362-10.607 16.162-10.607 16.162 4.7487 16.162 10.607z" fill="url(#a)" stroke="#9c7600"/>
  <path transform="matrix(.99238 -.12324 .12324 .99238 -209.67 223.56)" d="m655.59 344.75c0 5.8579-7.2362 10.607-16.162 10.607s-16.162-4.7487-16.162-10.607 7.2362-10.607 16.162-10.607 16.162 4.7487 16.162 10.607z" fill="url(#a)" stroke="#9c7600"/>
  <path transform="matrix(-1 0 0 -1 1076.9 839.17)" d="m655.59 344.75c0 5.8579-7.2362 10.607-16.162 10.607s-16.162-4.7487-16.162-10.607 7.2362-10.607 16.162-10.607 16.162 4.7487 16.162 10.607z" fill="url(#a)" stroke="#9c7600"/>
  <path transform="matrix(-1 0 0 -1 1077.2 842.2)" d="m655.59 344.75c0 5.8579-7.2362 10.607-16.162 10.607s-16.162-4.7487-16.162-10.607 7.2362-10.607 16.162-10.607 16.162 4.7487 16.162 10.607z" fill="url(#a)" stroke="#9c7600"/>
  <path transform="translate(-309.61 116.51)" d="m655.59 344.75c0 5.8579-7.2362 10.607-16.162 10.607s-16.162-4.7487-16.162-10.607 7.2362-10.607 16.162-10.607 16.162 4.7487 16.162 10.607z" fill="url(#a)" stroke="#9c7600"/>
  <path transform="translate(-309.86 113.48)" d="m655.59 344.75c0 5.8579-7.2362 10.607-16.162 10.607s-16.162-4.7487-16.162-10.607 7.2362-10.607 16.162-10.607 16.162 4.7487 16.162 10.607z" fill="url(#a)" stroke="#9c7600"/>
  <path transform="translate(-284.99 156.66)" d="m655.59 344.75c0 5.8579-7.2362 10.607-16.162 10.607s-16.162-4.7487-16.162-10.607 7.2362-10.607 16.162-10.607 16.162 4.7487 16.162 10.607z" fill="url(#a)" stroke="#9c7600"/>
  <path transform="translate(-285.24 153.63)" d="m655.59 344.75c0 5.8579-7.2362 10.607-16.162 10.607s-16.162-4.7487-16.162-10.607 7.2362-10.607 16.162-10.607 16.162 4.7487 16.162 10.607z" fill="url(#a)" stroke="#9c7600"/>
  <path transform="translate(-255.29 121.31)" d="m655.59 344.75c0 5.8579-7.2362 10.607-16.162 10.607s-16.162-4.7487-16.162-10.607 7.2362-10.607 16.162-10.607 16.162 4.7487 16.162 10.607z" fill="url(#a)" stroke="#9c7600"/>
  <path transform="translate(-255.55 118.28)" d="m655.59 344.75c0 5.8579-7.2362 10.607-16.162 10.607s-16.162-4.7487-16.162-10.607 7.2362-10.607 16.162-10.607 16.162 4.7487 16.162 10.607z" fill="url(#a)" stroke="#9c7600"/>
  <path transform="translate(-231.99 159.74)" d="m655.59 344.75c0 5.8579-7.2362 10.607-16.162 10.607s-16.162-4.7487-16.162-10.607 7.2362-10.607 16.162-10.607 16.162 4.7487 16.162 10.607z" fill="url(#a)" stroke="#9c7600"/>
  <path transform="translate(-232.25 156.71)" d="m655.59 344.75c0 5.8579-7.2362 10.607-16.162 10.607s-16.162-4.7487-16.162-10.607 7.2362-10.607 16.162-10.607 16.162 4.7487 16.162 10.607z" fill="url(#a)" stroke="#9c7600"/>
  <path transform="translate(-243.98 129.79)" d="m655.59 344.75c0 5.8579-7.2362 10.607-16.162 10.607s-16.162-4.7487-16.162-10.607 7.2362-10.607 16.162-10.607 16.162 4.7487 16.162 10.607z" fill="url(#a)" stroke="#9c7600"/>
  <path transform="translate(-244.23 126.76)" d="m655.59 344.75c0 5.8579-7.2362 10.607-16.162 10.607s-16.162-4.7487-16.162-10.607 7.2362-10.607 16.162-10.607 16.162 4.7487 16.162 10.607z" fill="url(#a)" stroke="#9c7600"/>
  <path d="m253.95 506.36 10.744 112.6 91.893 53.579-11.112-125.26-91.526-40.924z" fill="url(#ao)" fill-rule="evenodd"/>
  <path d="m352 536.86-0.5625 6.7812" fill="none" stroke="#130b00"/>
  <path d="m536 462.36 15.5-2" fill="none" stroke="#130b00"/>
  <path d="m248 497.86 3 23.5 102.5 47.5-2-26.5-103.5-44.5z" fill="url(#aa)" fill-rule="evenodd" stroke="#130b00"/>
  <path d="m251.25 521.61 0.75 18.75 103 45-2-17.5-101.75-46.25z" fill="url(#ab)" fill-rule="evenodd" stroke="#130b00"/>
  <path d="m252.5 541.36 1.5 17.5 103.5 45.5-2-18-103-45z" fill="url(#ac)" fill-rule="evenodd" stroke="#130b00"/>
  <path d="m254 559.86 1.5 17 104.5 48-1.5-20.5-104.5-44.5z" fill="url(#ad)" fill-rule="evenodd" stroke="#130b00"/>
  <path d="m255.5 577.86 1.5 15 104 51.5-1.5-20.5-104-46z" fill="url(#ae)" fill-rule="evenodd" stroke="#130b00"/>
  <path d="m256.75 593.11 2.25 15.25 103.5 57.5-1.5-21.5-104.25-51.25z" fill="url(#af)" fill-rule="evenodd" stroke="#130b00"/>
  <path d="m259 608.36 1 13 105.5 61.5-3-16-103.5-58.5z" fill="url(#ag)" fill-rule="evenodd" stroke="#130b00"/>
  <path d="m352.11 537.37-0.5625 6.7812" fill="none" stroke="#130b00"/>
  <g transform="matrix(.99539 0 0 .99539 -19.815 -205.69)" fill-rule="evenodd" stroke="#130b00">
   <path d="m373.42 753.68 202.07-83.658-5.8778 116.63-181.95 107.28-14.25-140.25z" fill="url(#z)"/>
   <path d="m373.64 754.28 1.8536 21.182 199.23-89.828 0.91422-15.854-202 84.5z" fill="url(#y)"/>
   <path d="m375.99 775.47 1.5607 16.768 195.32-89.389 2.4142-17.121-199.29 89.743z" fill="url(#x)"/>
   <path d="m377.7 793.23 1.6464 19.328 193.38-93.364 0.5-16.561-195.53 90.596z" fill="url(#w)"/>
   <path d="m380.16 812.92 1.4142 16.617 190.92-92.985 0.35355-17.678-192.69 94.045z" fill="url(#v)"/>
   <path d="m382.28 829.18 1.0607 19.799 188.44-98.995 0.35355-13.789-189.86 92.985z" fill="url(#u)"/>
   <path d="m384.05 849.69 1.0607 18.738 184.91-100.41 1.4142-17.324-187.38 98.995z" fill="url(#t)"/>
   <path d="m385.81 869.13 1.7678 24.395 182.43-107.13v-18.738l-184.2 101.47z" fill="url(#s)"/>
  </g>
  <path d="m311.06 652.97c-34.03-20.199-51.171-30.76-51.695-31.848-0.89826-1.8676-12.023-122.62-11.363-123.28 0.35994-0.35993 102.37 43.382 104.68 45.109 1.9638 1.47 13.001 139.14 12.453 140.43-0.1254 0.2945-26.072-13.79-54.074-30.411v2e-5zm38.537 8.8136c0-1.0474-2.0892-26.265-4.6426-56.038-3.1025-36.176-3.9204-54.575-4.4801-54.96-1.327-0.9125-79.585-34.093-79.821-33.857-0.4277 0.42769 8.4086 99.743 8.8931 99.955 0.27536 0.12016 18.161 10.678 39.745 23.461s39.483 23.265 39.775 23.293 0.53033-0.80685 0.53033-1.8543v1e-5z" fill="url(#e)" stroke="#5a5a00" stroke-linecap="round"/>
  <path transform="matrix(.99238 -.12324 .12324 .99238 -174.09 209.23)" d="m655.59 344.75c0 5.8579-7.2362 10.607-16.162 10.607s-16.162-4.7487-16.162-10.607 7.2362-10.607 16.162-10.607 16.162 4.7487 16.162 10.607z" fill="url(#a)" stroke="#9c7600"/>
  <path transform="matrix(.99238 -.12324 .12324 .99238 -174.71 206.25)" d="m655.59 344.75c0 5.8579-7.2362 10.607-16.162 10.607s-16.162-4.7487-16.162-10.607 7.2362-10.607 16.162-10.607 16.162 4.7487 16.162 10.607z" fill="url(#a)" stroke="#9c7600"/>
  <path transform="matrix(-1 0 0 -1 1086.3 797.17)" d="m655.59 344.75c0 5.8579-7.2362 10.607-16.162 10.607s-16.162-4.7487-16.162-10.607 7.2362-10.607 16.162-10.607 16.162 4.7487 16.162 10.607z" fill="url(#a)" stroke="#9c7600"/>
  <path transform="matrix(-1 0 0 -1 1086.5 800.2)" d="m655.59 344.75c0 5.8579-7.2362 10.607-16.162 10.607s-16.162-4.7487-16.162-10.607 7.2362-10.607 16.162-10.607 16.162 4.7487 16.162 10.607z" fill="url(#a)" stroke="#9c7600"/>
  <path d="m365.76 684c-0.50739-6.5435-13.997-139.6-13.403-140.19 1.0546-1.0546 200.68-82.929 201.11-82.491 0.4566 0.45641-5.7274 115.12-6.2287 115.56-0.5832 0.51367-173.53 102.41-176.49 104.29-2.8772 1.8287-1.8916 1.1112-4.9971 2.8338zm171.21-112.23c0.6234-0.57197 5.6557-91.829 5.099-92.464-0.3529-0.40257-174.96 71.336-177.07 72.749-0.2322 0.15573 1.8361 24.91 4.5962 55.009s5.0185 55.971 5.0185 57.492c4.0625-1.825 63.223-35.027 84.146-46.497 26.039-15.481 52.244-30.687 78.211-46.288z" fill="url(#d)" stroke="#5a5a00" stroke-linecap="round"/>
  <path d="m247.9 497.31 6.4103-2.9318 99.193 43.1 184-74.741-112.5-13.75 5.125-5.75 122.75 17.25-199.99 83.11-104.99-46.287z" fill="url(#h)" fill-rule="evenodd" stroke="#130b00"/>
  <path transform="matrix(.99238 -.12324 .12324 .99238 -239.3 183.75)" d="m655.59 344.75c0 5.8579-7.2362 10.607-16.162 10.607s-16.162-4.7487-16.162-10.607 7.2362-10.607 16.162-10.607 16.162 4.7487 16.162 10.607z" fill="url(#a)" stroke="#9c7600"/>
  <path transform="matrix(.99238 -.12324 .12324 .99238 -239.92 180.78)" d="m655.59 344.75c0 5.8579-7.2362 10.607-16.162 10.607s-16.162-4.7487-16.162-10.607 7.2362-10.607 16.162-10.607 16.162 4.7487 16.162 10.607z" fill="url(#a)" stroke="#9c7600"/>
  <path transform="matrix(.99238 -.12324 .12324 .99238 -216.93 218.13)" d="m655.59 344.75c0 5.8579-7.2362 10.607-16.162 10.607s-16.162-4.7487-16.162-10.607 7.2362-10.607 16.162-10.607 16.162 4.7487 16.162 10.607z" fill="url(#a)" stroke="#9c7600"/>
  <path transform="matrix(.99238 -.12324 .12324 .99238 -217.55 215.15)" d="m655.59 344.75c0 5.8579-7.2362 10.607-16.162 10.607s-16.162-4.7487-16.162-10.607 7.2362-10.607 16.162-10.607 16.162 4.7487 16.162 10.607z" fill="url(#a)" stroke="#9c7600"/>
  <path transform="matrix(-1 0 0 -1 1055.5 828.74)" d="m655.59 344.75c0 5.8579-7.2362 10.607-16.162 10.607s-16.162-4.7487-16.162-10.607 7.2362-10.607 16.162-10.607 16.162 4.7487 16.162 10.607z" fill="url(#a)" stroke="#9c7600"/>
  <path transform="matrix(-1 0 0 -1 1055.8 831.77)" d="m655.59 344.75c0 5.8579-7.2362 10.607-16.162 10.607s-16.162-4.7487-16.162-10.607 7.2362-10.607 16.162-10.607 16.162 4.7487 16.162 10.607z" fill="url(#a)" stroke="#9c7600"/>
  <path transform="translate(-217.85 134.95)" d="m655.59 344.75c0 5.8579-7.2362 10.607-16.162 10.607s-16.162-4.7487-16.162-10.607 7.2362-10.607 16.162-10.607 16.162 4.7487 16.162 10.607z" fill="url(#a)" stroke="#9c7600"/>
  <path transform="translate(-218.1 131.92)" d="m655.59 344.75c0 5.8579-7.2362 10.607-16.162 10.607s-16.162-4.7487-16.162-10.607 7.2362-10.607 16.162-10.607 16.162 4.7487 16.162 10.607z" fill="url(#a)" stroke="#9c7600"/>
  <path transform="matrix(.94814 .31784 -.31784 .94814 15.308 -71.725)" d="m655.59 344.75c0 5.8579-7.2362 10.607-16.162 10.607s-16.162-4.7487-16.162-10.607 7.2362-10.607 16.162-10.607 16.162 4.7487 16.162 10.607z" fill="url(#a)" stroke="#9c7600"/>
  <path transform="matrix(.94814 .31784 -.31784 .94814 16.032 -74.678)" d="m655.59 344.75c0 5.8579-7.2362 10.607-16.162 10.607s-16.162-4.7487-16.162-10.607 7.2362-10.607 16.162-10.607 16.162 4.7487 16.162 10.607z" fill="url(#a)" stroke="#9c7600"/>
  <path transform="matrix(.94814 .31784 -.31784 .94814 -35.302 -76.647)" d="m655.59 344.75c0 5.8579-7.2362 10.607-16.162 10.607s-16.162-4.7487-16.162-10.607 7.2362-10.607 16.162-10.607 16.162 4.7487 16.162 10.607z" fill="url(#a)" stroke="#9c7600"/>
  <path transform="matrix(.94814 .31784 -.31784 .94814 -34.578 -79.6)" d="m655.59 344.75c0 5.8579-7.2362 10.607-16.162 10.607s-16.162-4.7487-16.162-10.607 7.2362-10.607 16.162-10.607 16.162 4.7487 16.162 10.607z" fill="url(#a)" stroke="#9c7600"/>
  <path transform="matrix(.38776 -.92176 .92176 .38776 -78.289 918.37)" d="m655.59 344.75c0 5.8579-7.2362 10.607-16.162 10.607s-16.162-4.7487-16.162-10.607 7.2362-10.607 16.162-10.607 16.162 4.7487 16.162 10.607z" fill="url(#a)" stroke="#9c7600"/>
  <path transform="matrix(.38776 -.92176 .92176 .38776 -81.18 916.72)" d="m655.59 344.75c0 5.8579-7.2362 10.607-16.162 10.607s-16.162-4.7487-16.162-10.607 7.2362-10.607 16.162-10.607 16.162 4.7487 16.162 10.607z" fill="url(#a)" stroke="#9c7600"/>
  <path transform="matrix(-1 0 0 -1 1048.9 789.44)" d="m655.59 344.75c0 5.8579-7.2362 10.607-16.162 10.607s-16.162-4.7487-16.162-10.607 7.2362-10.607 16.162-10.607 16.162 4.7487 16.162 10.607z" fill="url(#a)" stroke="#9c7600"/>
  <path transform="matrix(-1 0 0 -1 1049.2 792.47)" d="m655.59 344.75c0 5.8579-7.2362 10.607-16.162 10.607s-16.162-4.7487-16.162-10.607 7.2362-10.607 16.162-10.607 16.162 4.7487 16.162 10.607z" fill="url(#a)" stroke="#9c7600"/>
  <path transform="matrix(-1 0 0 -1 1040.6 800.88)" d="m655.59 344.75c0 5.8579-7.2362 10.607-16.162 10.607s-16.162-4.7487-16.162-10.607 7.2362-10.607 16.162-10.607 16.162 4.7487 16.162 10.607z" fill="url(#a)" stroke="#9c7600"/>
  <path transform="matrix(-1 0 0 -1 1040.9 803.91)" d="m655.59 344.75c0 5.8579-7.2362 10.607-16.162 10.607s-16.162-4.7487-16.162-10.607 7.2362-10.607 16.162-10.607 16.162 4.7487 16.162 10.607z" fill="url(#a)" stroke="#9c7600"/>
  <path transform="matrix(-.35488 -.93491 .93491 -.35488 294.95 1177.8)" d="m655.59 344.75c0 5.8579-7.2362 10.607-16.162 10.607s-16.162-4.7487-16.162-10.607 7.2362-10.607 16.162-10.607 16.162 4.7487 16.162 10.607z" fill="url(#a)" stroke="#9c7600"/>
  <path transform="matrix(-.35488 -.93491 .93491 -.35488 292.2 1179.1)" d="m655.59 344.75c0 5.8579-7.2362 10.607-16.162 10.607s-16.162-4.7487-16.162-10.607 7.2362-10.607 16.162-10.607 16.162 4.7487 16.162 10.607z" fill="url(#a)" stroke="#9c7600"/>
  <path transform="matrix(-.85819 .51333 -.51333 -.85819 1129.2 430.46)" d="m655.59 344.75c0 5.8579-7.2362 10.607-16.162 10.607s-16.162-4.7487-16.162-10.607 7.2362-10.607 16.162-10.607 16.162 4.7487 16.162 10.607z" fill="url(#a)" stroke="#9c7600"/>
  <path transform="matrix(-.85819 .51333 -.51333 -.85819 1131 432.93)" d="m655.59 344.75c0 5.8579-7.2362 10.607-16.162 10.607s-16.162-4.7487-16.162-10.607 7.2362-10.607 16.162-10.607 16.162 4.7487 16.162 10.607z" fill="url(#a)" stroke="#9c7600"/>
  <path transform="matrix(-.85819 .51333 -.51333 -.85819 1086.7 411.35)" d="m655.59 344.75c0 5.8579-7.2362 10.607-16.162 10.607s-16.162-4.7487-16.162-10.607 7.2362-10.607 16.162-10.607 16.162 4.7487 16.162 10.607z" fill="url(#a)" stroke="#9c7600"/>
  <path transform="matrix(-.85819 .51333 -.51333 -.85819 1088.5 413.82)" d="m655.59 344.75c0 5.8579-7.2362 10.607-16.162 10.607s-16.162-4.7487-16.162-10.607 7.2362-10.607 16.162-10.607 16.162 4.7487 16.162 10.607z" fill="url(#a)" stroke="#9c7600"/>
  <path transform="matrix(.23695 .97152 -.97152 .23695 620.31 -235.98)" d="m655.59 344.75c0 5.8579-7.2362 10.607-16.162 10.607s-16.162-4.7487-16.162-10.607 7.2362-10.607 16.162-10.607 16.162 4.7487 16.162 10.607z" fill="url(#a)" stroke="#9c7600"/>
  <path transform="matrix(.23695 .97152 -.97152 .23695 623.2 -236.95)" d="m655.59 344.75c0 5.8579-7.2362 10.607-16.162 10.607s-16.162-4.7487-16.162-10.607 7.2362-10.607 16.162-10.607 16.162 4.7487 16.162 10.607z" fill="url(#a)" stroke="#9c7600"/>
  <path transform="matrix(.23695 .97152 -.97152 .23695 551.11 -235.82)" d="m655.59 344.75c0 5.8579-7.2362 10.607-16.162 10.607s-16.162-4.7487-16.162-10.607 7.2362-10.607 16.162-10.607 16.162 4.7487 16.162 10.607z" fill="url(#a)" stroke="#9c7600"/>
  <path transform="matrix(.23695 .97152 -.97152 .23695 554 -236.78)" d="m655.59 344.75c0 5.8579-7.2362 10.607-16.162 10.607s-16.162-4.7487-16.162-10.607 7.2362-10.607 16.162-10.607 16.162 4.7487 16.162 10.607z" fill="url(#a)" stroke="#9c7600"/>
  <path transform="matrix(-.23695 -.97152 .97152 -.23695 200.38 1185)" d="m655.59 344.75c0 5.8579-7.2362 10.607-16.162 10.607s-16.162-4.7487-16.162-10.607 7.2362-10.607 16.162-10.607 16.162 4.7487 16.162 10.607z" fill="url(#a)" stroke="#9c7600"/>
  <path transform="matrix(-.23695 -.97152 .97152 -.23695 197.49 1185.9)" d="m655.59 344.75c0 5.8579-7.2362 10.607-16.162 10.607s-16.162-4.7487-16.162-10.607 7.2362-10.607 16.162-10.607 16.162 4.7487 16.162 10.607z" fill="url(#a)" stroke="#9c7600"/>
  <g transform="matrix(1.2471 0 0 1.2471 -109.03 -129.38)">
   <path d="m444.53 519.86 22.504-9.326 0.13384 18.052s-1.0958 9.3317-7.2406 12.438-11.555-7.2039-11.555-7.2039l-3.8426-13.96z" fill="url(#r)" fill-rule="evenodd" stroke="#5a5a00"/>
   <path transform="matrix(1.083 -.08319 .08319 1.083 -82.347 -12.879)" d="m460.06 534.98c0 1.9282-1.1278 3.4913-2.5191 3.4913s-2.5191-1.5631-2.5191-3.4913 1.1278-3.4913 2.5191-3.4913 2.5191 1.5631 2.5191 3.4913z"/>
   <path transform="matrix(.9802 -.198 .198 .9802 67.668 -57.38)" d="m265.01 651.69h2.2981v6.9827h-2.2981z"/>
  </g>
  <path transform="translate(-251.46 150.87)" d="m655.59 344.75c0 5.8579-7.2362 10.607-16.162 10.607s-16.162-4.7487-16.162-10.607 7.2362-10.607 16.162-10.607 16.162 4.7487 16.162 10.607z" fill="url(#a)" stroke="#9c7600"/>
  <path transform="translate(-251.72 147.84)" d="m655.59 344.75c0 5.8579-7.2362 10.607-16.162 10.607s-16.162-4.7487-16.162-10.607 7.2362-10.607 16.162-10.607 16.162 4.7487 16.162 10.607z" fill="url(#a)" stroke="#9c7600"/>
 </g>
</svg>
